<?xml version="1.0" encoding="UTF-8" standalone="no"?>
<svg
   version="1.0"
   width="1000"
   height="1000"
   viewBox="0 0 1000 1000"
   preserveAspectRatio="xMidYMid"
   id="svg653"
   sodipodi:docname="logo.svg"
   inkscape:version="1.4.4 (dcaf3e7d9e, 2026-05-05)"
   xmlns:inkscape="http://www.inkscape.org/namespaces/inkscape"
   xmlns:sodipodi="http://sodipodi.sourceforge.net/DTD/sodipodi-0.dtd"
   xmlns:xlink="http://www.w3.org/1999/xlink"
   xmlns="http://www.w3.org/2000/svg"
   xmlns:svg="http://www.w3.org/2000/svg">
  <defs
     id="defs653">
    <linearGradient
       id="linearGradient17"
       inkscape:collect="always">
      <stop
         style="stop-color:#d2ffeb;stop-opacity:1;"
         offset="0"
         id="stop18" />
      <stop
         style="stop-color:#bef5fa;stop-opacity:1;"
         offset="0.5"
         id="stop20" />
      <stop
         style="stop-color:#b9e6ff;stop-opacity:1;"
         offset="1"
         id="stop19" />
    </linearGradient>
    <linearGradient
       id="linearGradient15"
       inkscape:collect="always">
      <stop
         style="stop-color:#00bf5f;stop-opacity:1;"
         offset="0"
         id="stop15" />
      <stop
         style="stop-color:#00bfae;stop-opacity:1;"
         offset="0.5"
         id="stop17" />
      <stop
         style="stop-color:#007fbf;stop-opacity:1;"
         offset="1"
         id="stop16" />
    </linearGradient>
    <linearGradient
       inkscape:collect="always"
       xlink:href="#linearGradient15"
       id="linearGradient16"
       x1="268"
       y1="90.477676"
       x2="753.00006"
       y2="930.5224"
       gradientUnits="userSpaceOnUse"
       gradientTransform="matrix(1.0309278,0,0,1.0309278,-26.288659,-26.288659)" />
    <linearGradient
       inkscape:collect="always"
       xlink:href="#linearGradient17"
       id="linearGradient19"
       x1="275"
       y1="110.28857"
       x2="725"
       y2="889.71143"
       gradientUnits="userSpaceOnUse" />
  </defs>
  <sodipodi:namedview
     id="namedview653"
     pagecolor="#ffffff"
     bordercolor="#000000"
     borderopacity="0.25"
     inkscape:showpageshadow="2"
     inkscape:pageopacity="0.0"
     inkscape:pagecheckerboard="true"
     inkscape:deskcolor="#d1d1d1"
     inkscape:zoom="0.59768036"
     inkscape:cx="580.57789"
     inkscape:cy="476.00694"
     inkscape:window-width="1920"
     inkscape:window-height="1052"
     inkscape:window-x="0"
     inkscape:window-y="0"
     inkscape:window-maximized="1"
     inkscape:current-layer="svg653"
     showguides="false" />
  <ellipse
     style="fill:#ffffff;fill-opacity:1;fill-rule:evenodd;stroke-width:25.0001;stroke-linecap:round;stroke-linejoin:round;paint-order:stroke fill markers"
     id="path3"
     cx="499.99997"
     cy="500"
     rx="499.99997"
     ry="500"
     inkscape:label="bg-white" />
  <path
     id="path1"
     style="display:inline;opacity:0.5;fill:url(#linearGradient19);fill-opacity:1;fill-rule:evenodd;stroke:none;stroke-width:11.339;stroke-linecap:round;stroke-linejoin:round;paint-order:stroke fill markers"
     d="M 950,500.00002 C 949.99999,619.34743 902.58941,733.80668 818.19805,818.19805 733.80668,902.58941 619.34743,949.99999 500.00002,950 380.6526,950 266.19334,902.58943 181.80197,818.19806 97.410596,733.80669 50.000011,619.34744 50,500.00002 50,380.65259 97.41058,266.19333 181.80195,181.80195 236.91043,126.69348 304.84055,87.354466 378.58079,66.689183 c -0.67738,50.208637 22.93895,291.584507 -6.99814,324.989507 -4.8888,5.45512 -119.33523,-10.99764 -135.33399,46.09906 -1.19872,4.27802 1.7865,60.1045 10.64296,69.21548 67.4336,69.37154 273.51874,267.9782 273.51874,267.9782 0,0 157.3197,-142.1901 185.54879,-177.23774 6.93871,-8.61471 3.07767,-8.3662 16.52838,-7.1283 11.32681,20.92359 26.76637,27.31677 36.88679,27.67113 18.47327,0.64684 33.04408,-18.27725 32.41674,-42.90704 6.2013,13.73378 16.04423,14.42423 26.40699,13.73378 5.0904,-0.33916 16.90883,-8.22085 23.44719,-19.04163 4.88608,-8.0863 6.42059,-19.57239 10.34371,-32.10148 36.28057,-0.88102 74.48465,1.19044 74.54863,-36.14093 0.0187,-10.91138 -8.98324,-33.47142 -51.1128,-28.63756 -5.98744,-17.96166 -17.65651,-34.39585 -38.05975,-34.23647 -4.41385,0.0345 -9.79733,-1.45644 -17.4407,9.16458 -1.45243,-17.81638 -12.71057,-40.02122 -33.14992,-40.68451 -6.39335,-0.20747 -19.93211,3.1675 -23.66893,12.47347 -3.93205,-32.83331 -3.73116,-58.47191 -47.94142,-52.64146 17.82894,-20.11358 40.90645,-61.79656 39.66533,-96.29952 -1.24111,-34.50296 -9.5198,-68.20524 -30.24774,-92.28361 -37.29371,-43.32181 -85.00724,-100.794128 -86.21713,-114.792774 -0.11164,-1.291693 3.84515,6.635996 7.61876,10.455431 64.24139,22.03342 123.28247,58.532863 172.21478,107.465173 C 902.58943,266.19334 950,380.6526 950,500.00002 Z"
     sodipodi:nodetypes="sssssscssscscscsscscscscczsscss"
     inkscape:label="bg-gradient" />
  <path
     id="path14"
     style="baseline-shift:baseline;display:inline;overflow:visible;opacity:1;vector-effect:none;fill:url(#linearGradient16);fill-rule:evenodd;stroke:none;stroke-width:1;stroke-linecap:round;stroke-linejoin:round;paint-order:stroke fill markers;enable-background:accumulate;stop-color:#000000;stop-opacity:1"
     d="m 499.99998,0 c -45.66424,0 -90.68832,6.248285 -133.92597,18.270779 -0.0278,0.0077 -0.0547,0.01642 -0.0826,0.02417 a 25.773195,25.773195 0 0 0 -0.4792,0.132891 c -0.008,0.0024 -0.0177,0.0057 -0.0262,0.008 C 283.39859,41.368865 207.77132,85.120901 146.44611,146.44611 52.684937,240.20729 0,367.40164 0,499.99998 0,632.59833 52.684937,759.79267 146.44611,853.55386 240.20729,947.31503 367.40164,1000 499.99998,1000 632.59833,1000 759.79267,947.31503 853.55386,853.55386 947.31503,759.79267 1000,632.59833 1000,499.99998 1000,289.27622 867.84164,101.79867 671.15413,30.202963 a 25.773195,25.773195 0 0 0 -33.03399,15.403511 25.773195,25.773195 0 0 0 15.40352,33.033987 c 176.50276,64.248319 294.92992,232.168349 294.92992,421.359519 0,118.94719 -47.2403,232.99657 -131.34866,317.10494 -84.10837,84.10836 -198.15775,131.34866 -317.10494,131.34866 -118.94719,0 -232.99657,-47.2403 -317.10494,-131.34866 C 98.786691,732.99656 51.54639,618.94717 51.54639,499.99998 c 0,-118.94719 47.240301,-232.99658 131.34865,-317.10494 46.82771,-46.8277 102.9364,-82.22634 164.00411,-104.407609 V 375.05234 c -20.29022,-2.59688 -36.98245,-3.64413 -51.92897,-2.37798 -21.73106,1.84088 -40.53569,10.01434 -55.16873,21.92333 -42.44285,34.5418 -45.38366,97.79197 -8.51924,134.11122 l 0.006,0.006 0.002,0.002 0.15504,0.15705 c -0.009,-0.0103 -0.0185,-0.0224 -0.0281,-0.0322 l 0.3262,0.32419 c -0.0993,-0.0963 -0.19731,-0.19327 -0.29599,-0.28995 l 266.56148,272.0444 a 25.775772,25.775772 0 0 0 36.50934,0.31009 L 724.33776,613.954 a 25.773195,25.773195 0 0 0 0.24767,-36.44693 25.773195,25.773195 0 0 0 -36.44894,-0.24565 L 516.72638,746.37159 268.09962,492.63248 a 25.775772,25.775772 0 0 0 -0.46109,-0.4591 c -14.29118,-13.867 -14.77433,-41.74632 4.69957,-57.59502 8.61178,-7.00864 13.5176,-9.40232 26.98131,-10.54286 13.46372,-1.14054 35.30379,0.68206 69.15472,6.27215 a 25.775772,25.775772 0 0 0 29.97141,-25.42888 V 63.192653 C 431.47964,55.51248 465.5342,51.54639 499.99998,51.54639 c 1.38897,-1e-6 2.77766,0.0072 4.166,0.02013 A 25.773195,25.773195 0 0 0 530.17879,26.03294 25.773195,25.773195 0 0 0 504.6452,0.022149 C 503.09647,0.007739 501.54821,-9.9990311e-7 499.99998,0 Z m 78.64851,2.504833 C 567.17681,2.382745 555.75201,9.618291 555.66605,23.739529 l -1.23228,398.270361 c -49.31892,-20.70642 -119.74108,-2.47438 -141.83109,65.17598 -16.56191,50.72062 22.32795,102.5831 83.19708,102.57732 89.47506,-0.008 109.20551,-78.746 106.57015,-100.20538 l 1.30275,-298.67105 c 0,0 63.4479,27.56702 80.85132,63.62354 17.40341,36.05652 19.0796,61.5368 0.57788,104.79622 -1.86074,4.25313 -4.8078,14.59105 6.97689,6.70506 26.27393,-20.43526 70.56269,-87.81579 27.46254,-163.50877 C 686.53104,144.46863 616.97614,116.11303 601.90679,25.412773 601.63751,10.106954 590.12017,2.62692 578.64849,2.504833 Z M 369.32183,17.63249 a 25.773195,25.773195 0 0 0 -0.75105,0.149001 25.773195,25.773195 0 0 1 0.75105,-0.149001 z m -5.07812,1.252416 a 25.773195,25.773195 0 0 0 -1.86856,0.674533 25.773195,25.773195 0 0 1 1.86856,-0.674533 z m -2.827,1.167848 a 25.773195,25.773195 0 0 0 -1.99742,1.028914 25.773195,25.773195 0 0 1 1.99742,-1.028914 z m -8.48301,6.642638 a 25.773195,25.773195 0 0 0 -0.86985,1.01482 25.773195,25.773195 0 0 1 0.86985,-1.01482 z M 731.60436,384.8824 a 15.465463,15.465463 0 0 0 -15.51224,12.43758 l -15.76193,79.29284 -7.42388,-26.19603 a 15.465463,15.465463 0 0 0 -29.53649,-0.70876 l -13.13628,39.10478 h -19.90979 a 15.463917,15.463917 0 0 0 -15.46392,15.46391 15.463917,15.463917 0 0 0 15.46392,15.46392 h 31.02852 a 15.465463,15.465463 0 0 0 14.6585,-10.53882 l 0.76312,-2.27328 11.31605,39.93637 a 15.465463,15.465463 0 0 0 30.04591,-1.20207 l 11.13079,-55.9963 14.14708,92.5741 a 15.465463,15.465463 0 0 0 30.45464,0.67251 l 13.70209,-69.08424 9.95086,44.25942 a 15.465463,15.465463 0 0 0 29.83852,1.2504 l 14.1672,-45.0004 a 15.465463,15.465463 0 0 0 12.26845,6.55807 l 38.78462,-1.16382 a 15.463917,15.463917 0 0 0 14.99275,-15.91897 15.463917,15.463917 0 0 0 -15.92098,-14.99476 l -28.13104,0.84367 -10.25894,-24.67583 a 15.465463,15.465463 0 0 0 -29.02907,1.2927 l -9.13136,29.0049 -13.38998,-59.55621 a 15.465463,15.465463 0 0 0 -30.25532,0.38256 l -10.78245,54.35527 -14.12895,-92.46738 a 15.465463,15.465463 0 0 0 -14.9404,-13.11613 z"
     inkscape:label="path" />
</svg>
